<?xml version="1.0" encoding="UTF-8"?>
<svg id="Layer_1" data-name="Layer 1" xmlns="http://www.w3.org/2000/svg" viewBox="0 0 641 646">
  <defs>
    <style>
      .cls-1 {
        fill: #ec4899;
      }
    </style>
  </defs>
  <path class="cls-1" d="M74.36,248.27c-7.27,7.44-19.15,7.26-25.64-1.14-5.7-7.38-4.07-19.85,3.5-25.49,16.88-12.56,35.54,12.92,22.13,26.63Z"/>
  <path class="cls-1" d="M572.45,218.86c29.76-6.13,23.49,39.01,2,34.55-17.73-3.68-17.41-31.37-2-34.55Z"/>
  <g>
    <path class="cls-1" d="M242.71,175.63c7.17,22.38,23.86,37.77,45.48,46.03,45.58,17.4,92.95-.68,111.61-45.95,1.03-.35,2,.02,2.96.37,9.87,3.54,33.62,20.7,41.97,28.05,57.66,50.71,73.8,118.23,65.97,193-12.06,115.25-133.07,193.26-243.98,160.01-64.87-19.45-120.09-77.98-134.71-144.29-17.11-77.59,5.74-159.17,66.69-210.72,12.86-10.87,28.01-21.35,44.01-26.49ZM221.43,234.32c3.72-3.22,3.9-16.07-.37-17.53-11.81-4.04-12.76,17.3-1.97,18.59.89-.13,1.66-.47,2.34-1.06ZM281.08,347.01c0-33.91-27.49-61.39-61.39-61.39s-61.39,27.49-61.39,61.39,27.49,61.39,61.39,61.39,61.39-27.49,61.39-61.39ZM480.49,346.72c0-33.59-27.23-60.83-60.83-60.83s-60.83,27.23-60.83,60.83,27.23,60.83,60.83,60.83,60.83-27.23,60.83-60.83ZM276.45,435.83c-4.24.93-7.72,8.07-7.5,12.04.48,8.7,13.05,21.6,20.45,25.58,19.91,10.71,42.92,10.22,62.24-1.4,7.89-4.74,23.12-19.14,19.15-29-1.7-4.22-6.63-7.91-11.31-7.23-6.52.96-6.88,6.59-10.24,10.83-12.94,16.33-42.9,17.33-57.03,1.99-4.88-5.3-6.73-14.79-15.76-12.81ZM222.44,458.33c6.51-5.34,2.99-15.36-5.75-15.31-13.59,4.85-2.56,22.12,5.75,15.31ZM420.46,442.8c-10.71,2.22-7.32,18.1,2.67,16.8,9.43-1.22,8.71-19.16-2.67-16.8ZM184.44,443.82c-7.08,2.1-6.01,16.25,3.76,15.87,11-.43,7.75-19.29-3.76-15.87ZM446.04,457.31c8.38,9.16,17.53-8.96,7.66-13.16-7.96-3.39-13.11,7.2-7.66,13.16Z"/>
    <path class="cls-1" d="M555.46,270.87c17.35-2.96,28.05,8.3,31.3,24.22l-.13,203.95c-4,20.99-32.26,24.52-46.92,12.09-6.48-5.49-7.47-11.85-8.03-19.97-3.36-48.19.56-103.01.09-152.09-.13-13.54-4.24-39.55,1.77-51.13,3.82-7.37,13.6-15.66,21.92-17.08Z"/>
    <path class="cls-1" d="M75.47,271.87c17.68-2.81,30.07,7.22,33.3,24.22l-.13,201.95c-6.13,27.72-54.09,26.87-54.95-3.88,2.55-65.12-2.83-131.07-.99-195.98.33-11.71,11.16-24.47,22.77-26.32Z"/>
    <path class="cls-1" d="M522.13,136.22c3.01,3,23.05,23.45,23.48,25.11.6,2.3-3.64,5.68-5.37,7.33-1.25,1.2-8.68,7.54-9.51,6.97-2.81-6.01-8.01-12.06-12.5-17.01-91.03-100.41-245.08-115.22-354.84-35.82-21.22,15.35-38.15,33.27-54.39,53.69-4.59,1.27-9.82-8.75-14.35-10.29l-.97-2.06c36.36-49.23,90.75-86.18,150.04-102,102.13-27.25,204.12.08,278.41,74.09Z"/>
    <path class="cls-1" d="M517.71,278.62l-13.82-28.66c-30.21-54.36-74.39-89.52-134.96-105.04-75.69-19.4-157.8,9.74-207.19,69.24-15.51,18.68-30.53,42.37-38.04,65.47l-9.65-13.47c13.75-35.04,36.75-67.01,66.19-90.5,108.51-86.6,259.35-60.34,331.28,57.67,6.09,9.99,11.68,21.33,17.12,31.71-4.55,3.69-9.8,7.37-10.93,13.59Z"/>
    <path class="cls-1" d="M178.07,526.28c92.16,87.04,246.85,70.25,315.87-35.93l16.77-28.72,2.49,25.94c-16.17,25.87-35.59,46.92-60.15,64.88-90.84,66.45-216.35,53.84-293.84-26.82-6.84-7.12-29.47-32.41-31.26-40.74-1.63-7.57.07-17.5.27-25.27,4.2,7.99,7.95,15.43,13.09,22.91,9.81,14.26,24.23,31.9,36.76,43.74Z"/>
    <path class="cls-1" d="M605.73,483.63l-1.01-177.01c11.75-.71,24.4,1.95,30.44,13.07,4.33,7.96,2.57,25.73,2.61,35.48.1,25.46-.62,51.44-1.08,76.91-.15,8.44,1.68,34.14-2.07,39.93-4.04,6.25-21.5,11.51-28.89,11.61Z"/>
    <path class="cls-1" d="M34.72,484.62c-8.68-1.38-16.8-3.08-23.91-8.58-12.53-9.71-7.09-20.66-7.04-33.87.16-39.79-2.26-79.85-.98-119.98,1.14-7.35,10.51-12.18,16.93-14.07,2.65-.78,14.26-3.48,15.56-1.55,1.82,2.7-.5,11.82-.6,15.5-1.48,54.09,1.21,108.44.04,162.54Z"/>
    <path class="cls-1" d="M275.69,162.66c.86,18.83,26.19,31.14,42.5,32,18.14.96,45.97-11.9,48.63-31.93,1.09-.94,10.5,1.28,12.43,1.88,1.32.41,1.61-.77,1.52,1.53-.29,7.71-8.75,20.43-14.56,25.47-21.47,18.6-53.33,21.41-78.49,8.55-11.42-5.84-25.45-20.39-26.04-33.86l14.02-3.63Z"/>
    <path class="cls-1" d="M351.72,158.63c-.33,8.72-13.01,15.66-20.45,18.05-15.42,4.95-37.09-2.5-43.55-18.04,21.37-1.91,42.7-3.36,64,0Z"/>
    <circle class="cls-1" cx="219.88" cy="346.53" r="37.75"/>
    <circle class="cls-1" cx="420.44" cy="346.34" r="37.3"/>
    <rect class="cls-1" x="203.72" y="205.63" width="26" height="36"/>
    <rect class="cls-1" x="173.72" y="440.63" width="67" height="26"/>
    <rect class="cls-1" x="396.72" y="433.63" width="77" height="34"/>
    <rect class="cls-1" x="38.59" y="195.07" width="86.1" height="19.78" transform="translate(-136.69 173.18) rotate(-60)"/>
    <rect class="cls-1" x="514.18" y="190.74" width="86.1" height="19.78" transform="translate(452.36 -382.26) rotate(60)"/>
  </g>
</svg>
